<svg xmlns="http://www.w3.org/2000/svg" viewBox="0 0 128 128" width="128" height="128"><g stroke="#94a3b8" stroke-width="1.5" opacity="0.6"><line x1="91.2" y1="56.0" x2="85.2" y2="74.0" /><line x1="91.2" y1="96.0" x2="85.2" y2="114.0" /><line x1="91.2" y1="136.0" x2="85.2" y2="154.0" /><line x1="91.2" y1="16.0" x2="85.2" y2="34.0" /><line x1="131.2" y1="56.0" x2="125.2" y2="74.0" /><line x1="131.2" y1="96.0" x2="125.2" y2="114.0" /><line x1="131.2" y1="136.0" x2="125.2" y2="154.0" /><line x1="131.2" y1="16.0" x2="125.2" y2="34.0" /><line x1="11.2" y1="56.0" x2="5.2" y2="74.0" /><line x1="11.2" y1="96.0" x2="5.2" y2="114.0" /><line x1="11.2" y1="136.0" x2="5.2" y2="154.0" /><line x1="11.2" y1="16.0" x2="5.2" y2="34.0" /><line x1="51.2" y1="56.0" x2="45.2" y2="74.0" /><line x1="51.2" y1="96.0" x2="45.2" y2="114.0" /><line x1="51.2" y1="136.0" x2="45.2" y2="154.0" /><line x1="51.2" y1="16.0" x2="45.2" y2="34.0" /></g></svg>