<svg xmlns="http://www.w3.org/2000/svg" viewBox="0 0 128 128" width="128" height="128"><path d="M 14.9,128 Q 15.4,103.7 14.4,83.8 Q 17.6,103.7 20.5,128 Z" fill="#0c0b0a" /><polygon points="14.4,79.8 17.4,83.8 14.4,87.8 11.4,83.8" fill="#4a4640" /><path d="M 32.7,128 Q 33.0,86.4 31.3,52.4 Q 35.2,86.4 38.1,128 Z" fill="#0c0b0a" /><path d="M 43.5,128 Q 47.9,104.1 52.2,84.5 Q 50.9,104.1 51.0,128 Z" fill="#0c0b0a" /><polygon points="52.2,80.5 55.2,84.5 52.2,88.5 49.2,84.5" fill="#4a4640" /><path d="M 61.3,128 Q 58.6,98.8 51.6,74.9 Q 62.3,98.8 70.4,128 Z" fill="#11100f" /><path d="M 78.5,128 Q 82.5,74.3 84.8,30.3 Q 86.3,74.3 88.1,128 Z" fill="#11100f" /><polygon points="84.8,26.3 87.8,30.3 84.8,34.3 81.8,30.3" fill="#4a4640" /><path d="M 92.1,128 Q 99.1,84.8 108.2,49.5 Q 101.8,84.8 98.8,128 Z" fill="#0c0b0a" /><path d="M 108.0,128 Q 109.1,77.2 110.1,35.6 Q 111.8,77.2 114.8,128 Z" fill="#11100f" /></svg>