<svg xmlns="http://www.w3.org/2000/svg" viewBox="-24 -4 168 176" width="168" height="176">
    <line x1="52.0" y1="91.5" x2="47.8" y2="115.1" stroke="#1b2436" stroke-width="12" stroke-linecap="round"/><line x1="47.8" y1="115.1" x2="46.2" y2="139.1" stroke="#1b2436" stroke-width="10" stroke-linecap="round"/>
    <line x1="56.3" y1="60.8" x2="69.2" y2="73.3" stroke="#1b2436" stroke-width="10" stroke-linecap="round"/><line x1="69.2" y1="73.3" x2="83.3" y2="65.8" stroke="#1b2436" stroke-width="9" stroke-linecap="round"/><circle cx="83.3" cy="65.8" r="5.903999999999999" fill="#1b2436"/><circle cx="82.7" cy="61.5" r="3.5999999999999996" fill="#1b2436"/><circle cx="90.3" cy="62.0" r="6.624" fill="#1b2436"/>
    <path d="M 59.3 58.8
    C 48.6 84.8 35.1 101.5 34.6 123.5
    C 30.6 139.5 37.7 134.6 30.7 139.6
    C 39.7 128.6 50.0 121.5 55.0 92.5 Z" fill="#1b2436"/><path d="M 41.2 135.1
  L 42.2 143.1 L 57.2 144.1
  Q 62.2 143.1 59.2 139.1 L 49.2 136.1 Z" fill="#1b2436"/>
    <line x1="52.0" y1="91.5" x2="56.3" y2="56.8" stroke="#1b2436" stroke-width="19" stroke-linecap="round"/>
    <circle cx="57.7" cy="44.9" r="9" fill="#1b2436"/>
    <line x1="52.0" y1="91.5" x2="56.2" y2="115.1" stroke="#1b2436" stroke-width="13" stroke-linecap="round"/><line x1="56.2" y1="115.1" x2="57.8" y2="139.1" stroke="#1b2436" stroke-width="11" stroke-linecap="round"/>
    <line x1="56.3" y1="60.8" x2="70.4" y2="71.8" stroke="#1b2436" stroke-width="12" stroke-linecap="round"/><line x1="70.4" y1="71.8" x2="84.0" y2="63.4" stroke="#1b2436" stroke-width="11" stroke-linecap="round"/><circle cx="84.0" cy="63.4" r="6.691199999999999" fill="#1b2436"/><circle cx="83.0" cy="58.6" r="4.08" fill="#1b2436"/><circle cx="91.6" cy="58.6" r="7.5072" fill="#1b2436"/>
    <path d="M 52.8 135.1
  L 53.8 143.1 L 68.8 144.1
  Q 73.8 143.1 70.8 139.1 L 60.8 136.1 Z" fill="#1b2436"/><path d="M 62.2 36.8
    C 46.0 31.4 40.6 48.5 48.7 62.0
    C 51.4 53.9 55.9 52.1 61.3 49.8
    C 68.5 45.3 67.6 38.6 62.2 36.8 Z" fill="#1b2436"/><path d="M 61.8 40.8
    L 70.1 45.4 L 62.7 49.5 Z" fill="#1b2436"/></svg>