<svg xmlns="http://www.w3.org/2000/svg" viewBox="-34 -22 178 190" width="178" height="190">
    <line x1="52.0" y1="90.0" x2="60.2" y2="112.6" stroke="#05060c" stroke-width="9" stroke-linecap="round"/><line x1="60.2" y1="112.6" x2="63.5" y2="136.3" stroke="#05060c" stroke-width="7" stroke-linecap="round"/>
    <line x1="40.8" y1="66.2" x2="28.3" y2="79.1" stroke="#05060c" stroke-width="7" stroke-linecap="round"/><line x1="28.3" y1="79.1" x2="22.3" y2="94.0" stroke="#05060c" stroke-width="6" stroke-linecap="round"/><circle cx="22.3" cy="94.0" r="4.95" fill="#05060c"/>
    <path d="M 33.6 50.0
    q -18.0 -12.0 -34.0 5.6
    q 10.0 0.6 16.0 7.8 z"
    fill="#05060c"/><line x1="38.8" y1="62.2" x2="24.8" y2="44.2" stroke="#05060c" stroke-width="2.4" stroke-linecap="round"/>
    <line x1="52.0" y1="90.0" x2="40.8" y2="62.2" stroke="#05060c" stroke-width="13" stroke-linecap="round"/>
    <circle cx="36.6" cy="52.0" r="8" fill="#05060c"/>
    <line x1="52.0" y1="90.0" x2="47.8" y2="113.6" stroke="#05060c" stroke-width="10" stroke-linecap="round"/><line x1="47.8" y1="113.6" x2="37.3" y2="135.2" stroke="#05060c" stroke-width="8" stroke-linecap="round"/>
    <line x1="40.8" y1="66.2" x2="30.7" y2="81.1" stroke="#05060c" stroke-width="9" stroke-linecap="round"/><line x1="30.7" y1="81.1" x2="27.9" y2="96.9" stroke="#05060c" stroke-width="8" stroke-linecap="round"/><circle cx="27.9" cy="96.9" r="6.75" fill="#05060c"/>
    </svg>